<mxfile host="app.diagrams.net" modified="2021-02-02T20:41:49.421Z" agent="5.0 (Windows NT 10.0; Win64; x64) AppleWebKit/537.36 (KHTML, like Gecko) Chrome/88.0.4324.96 Safari/537.36" etag="zzSiVG7pJFOfh1s20E_x" version="14.2.9" type="github">
  <diagram id="C5RBs43oDa-KdzZeNtuy" name="Page-1">
    <mxGraphModel dx="1422" dy="1931" grid="1" gridSize="10" guides="1" tooltips="1" connect="1" arrows="1" fold="1" page="1" pageScale="1" pageWidth="827" pageHeight="1169" math="0" shadow="0">
      <root>
        <mxCell id="WIyWlLk6GJQsqaUBKTNV-0" />
        <mxCell id="WIyWlLk6GJQsqaUBKTNV-1" parent="WIyWlLk6GJQsqaUBKTNV-0" />
        <mxCell id="WIyWlLk6GJQsqaUBKTNV-2" value="" style="rounded=0;html=1;jettySize=auto;orthogonalLoop=1;fontSize=11;endArrow=block;endFill=0;endSize=8;strokeWidth=1;shadow=0;labelBackgroundColor=none;edgeStyle=orthogonalEdgeStyle;" parent="WIyWlLk6GJQsqaUBKTNV-1" source="WIyWlLk6GJQsqaUBKTNV-3" target="WIyWlLk6GJQsqaUBKTNV-6" edge="1">
          <mxGeometry relative="1" as="geometry" />
        </mxCell>
        <mxCell id="WIyWlLk6GJQsqaUBKTNV-3" value="Lamp doesn&#39;t work" style="rounded=1;whiteSpace=wrap;html=1;fontSize=12;glass=0;strokeWidth=1;shadow=0;" parent="WIyWlLk6GJQsqaUBKTNV-1" vertex="1">
          <mxGeometry x="160" y="80" width="120" height="40" as="geometry" />
        </mxCell>
        <mxCell id="WIyWlLk6GJQsqaUBKTNV-4" value="Yes" style="rounded=0;html=1;jettySize=auto;orthogonalLoop=1;fontSize=11;endArrow=block;endFill=0;endSize=8;strokeWidth=1;shadow=0;labelBackgroundColor=none;edgeStyle=orthogonalEdgeStyle;" parent="WIyWlLk6GJQsqaUBKTNV-1" source="WIyWlLk6GJQsqaUBKTNV-6" target="WIyWlLk6GJQsqaUBKTNV-10" edge="1">
          <mxGeometry y="20" relative="1" as="geometry">
            <mxPoint as="offset" />
          </mxGeometry>
        </mxCell>
        <mxCell id="WIyWlLk6GJQsqaUBKTNV-5" value="No" style="edgeStyle=orthogonalEdgeStyle;rounded=0;html=1;jettySize=auto;orthogonalLoop=1;fontSize=11;endArrow=block;endFill=0;endSize=8;strokeWidth=1;shadow=0;labelBackgroundColor=none;" parent="WIyWlLk6GJQsqaUBKTNV-1" source="WIyWlLk6GJQsqaUBKTNV-6" target="WIyWlLk6GJQsqaUBKTNV-7" edge="1">
          <mxGeometry y="10" relative="1" as="geometry">
            <mxPoint as="offset" />
          </mxGeometry>
        </mxCell>
        <mxCell id="WIyWlLk6GJQsqaUBKTNV-6" value="Lamp&lt;br&gt;plugged in?" style="rhombus;whiteSpace=wrap;html=1;shadow=0;fontFamily=Helvetica;fontSize=12;align=center;strokeWidth=1;spacing=6;spacingTop=-4;" parent="WIyWlLk6GJQsqaUBKTNV-1" vertex="1">
          <mxGeometry x="170" y="170" width="100" height="80" as="geometry" />
        </mxCell>
        <mxCell id="WIyWlLk6GJQsqaUBKTNV-7" value="Plug in lamp" style="rounded=1;whiteSpace=wrap;html=1;fontSize=12;glass=0;strokeWidth=1;shadow=0;" parent="WIyWlLk6GJQsqaUBKTNV-1" vertex="1">
          <mxGeometry x="320" y="190" width="120" height="40" as="geometry" />
        </mxCell>
        <mxCell id="WIyWlLk6GJQsqaUBKTNV-8" value="No" style="rounded=0;html=1;jettySize=auto;orthogonalLoop=1;fontSize=11;endArrow=block;endFill=0;endSize=8;strokeWidth=1;shadow=0;labelBackgroundColor=none;edgeStyle=orthogonalEdgeStyle;" parent="WIyWlLk6GJQsqaUBKTNV-1" source="WIyWlLk6GJQsqaUBKTNV-10" target="WIyWlLk6GJQsqaUBKTNV-11" edge="1">
          <mxGeometry x="0.3333" y="20" relative="1" as="geometry">
            <mxPoint as="offset" />
          </mxGeometry>
        </mxCell>
        <mxCell id="WIyWlLk6GJQsqaUBKTNV-9" value="Yes" style="edgeStyle=orthogonalEdgeStyle;rounded=0;html=1;jettySize=auto;orthogonalLoop=1;fontSize=11;endArrow=block;endFill=0;endSize=8;strokeWidth=1;shadow=0;labelBackgroundColor=none;" parent="WIyWlLk6GJQsqaUBKTNV-1" source="WIyWlLk6GJQsqaUBKTNV-10" target="WIyWlLk6GJQsqaUBKTNV-12" edge="1">
          <mxGeometry y="10" relative="1" as="geometry">
            <mxPoint as="offset" />
          </mxGeometry>
        </mxCell>
        <mxCell id="WIyWlLk6GJQsqaUBKTNV-10" value="Bulb&lt;br&gt;burned out?" style="rhombus;whiteSpace=wrap;html=1;shadow=0;fontFamily=Helvetica;fontSize=12;align=center;strokeWidth=1;spacing=6;spacingTop=-4;" parent="WIyWlLk6GJQsqaUBKTNV-1" vertex="1">
          <mxGeometry x="170" y="290" width="100" height="80" as="geometry" />
        </mxCell>
        <mxCell id="WIyWlLk6GJQsqaUBKTNV-11" value="Repair Lamp" style="rounded=1;whiteSpace=wrap;html=1;fontSize=12;glass=0;strokeWidth=1;shadow=0;" parent="WIyWlLk6GJQsqaUBKTNV-1" vertex="1">
          <mxGeometry x="160" y="430" width="120" height="40" as="geometry" />
        </mxCell>
        <mxCell id="WIyWlLk6GJQsqaUBKTNV-12" value="Replace Bulb" style="rounded=1;whiteSpace=wrap;html=1;fontSize=12;glass=0;strokeWidth=1;shadow=0;" parent="WIyWlLk6GJQsqaUBKTNV-1" vertex="1">
          <mxGeometry x="320" y="310" width="120" height="40" as="geometry" />
        </mxCell>
        <mxCell id="LsNxBSuPGVXpMIUkofVe-0" value="&lt;h1&gt;1213 Class Demo Workshop&lt;/h1&gt;&lt;div&gt;(X608)&amp;nbsp; &amp;nbsp;Based on three scores that the user inputs, display the average of the three scores and the letter grade that is assigned for the test score average.&amp;nbsp; Use the grading scheme below:Test Score AverageLetter Grade90 –&amp;nbsp; &amp;nbsp;100A 80 –&amp;nbsp; &amp;nbsp;89B 70 –&amp;nbsp; &amp;nbsp;79C 60 –&amp;nbsp; &amp;nbsp;69D Below 60F Your display should look like:Your average test score is 89.9. You earned a B.&lt;br&gt;&lt;/div&gt;&lt;p&gt;&lt;span class=&quot;textLayer--absolute&quot; style=&quot;box-sizing: border-box ; color: transparent ; position: relative ; cursor: text ; transform-origin: 0% 0% ; display: block ; float: left ; margin-bottom: -918px ; margin-right: -918px ; background-color: rgb(242 , 242 , 242) ; left: 162.079px ; top: 466.128px ; font-size: 16.56px ; font-family: serif&quot;&gt;(&lt;/span&gt;&lt;span class=&quot;textLayer--absolute&quot; style=&quot;box-sizing: border-box ; color: transparent ; position: relative ; cursor: text ; transform-origin: 0% 0% ; display: block ; float: left ; margin-bottom: -918px ; margin-right: -918px ; background-color: rgb(242 , 242 , 242) ; left: 168.372px ; top: 466.128px ; font-size: 16.56px ; font-family: serif ; transform: scalex(0.953484)&quot;&gt;X608&lt;/span&gt;&lt;span class=&quot;textLayer--absolute&quot; style=&quot;box-sizing: border-box ; color: transparent ; position: relative ; cursor: text ; transform-origin: 0% 0% ; display: block ; float: left ; margin-bottom: -918px ; margin-right: -918px ; background-color: rgb(242 , 242 , 242) ; left: 203.645px ; top: 466.128px ; font-size: 16.56px ; font-family: serif ; transform: scalex(1.06383)&quot;&gt;)   Based on three scores that the user inputs, display the average of the three scores &lt;/span&gt;&lt;span class=&quot;textLayer--absolute&quot; style=&quot;box-sizing: border-box ; color: transparent ; position: relative ; cursor: text ; transform-origin: 0% 0% ; display: block ; float: left ; margin-bottom: -918px ; margin-right: -918px ; background-color: rgb(242 , 242 , 242) ; left: 162.063px ; top: 485.387px ; font-size: 16.56px ; font-family: serif ; transform: scalex(1.06281)&quot;&gt;and the letter grade that is assigned for the test score average.  Use the grading scheme &lt;/span&gt;&lt;span class=&quot;textLayer--absolute&quot; style=&quot;box-sizing: border-box ; color: transparent ; position: relative ; cursor: text ; transform-origin: 0% 0% ; display: block ; float: left ; margin-bottom: -918px ; margin-right: -918px ; background-color: rgb(242 , 242 , 242) ; left: 162.063px ; top: 504.828px ; font-size: 16.56px ; font-family: serif ; transform: scalex(1.05384)&quot;&gt;below:&lt;/span&gt;&lt;span class=&quot;textLayer--absolute&quot; style=&quot;box-sizing: border-box ; color: transparent ; position: relative ; cursor: text ; transform-origin: 0% 0% ; display: block ; float: left ; margin-bottom: -918px ; margin-right: -918px ; background-color: rgb(242 , 242 , 242) ; left: 162px ; top: 543.525px ; font-size: 16.56px ; font-family: serif ; transform: scalex(1.12621)&quot;&gt;Test Score Average&lt;/span&gt;&lt;span class=&quot;textLayer--absolute&quot; style=&quot;box-sizing: border-box ; color: transparent ; position: relative ; cursor: text ; transform-origin: 0% 0% ; display: block ; float: left ; margin-bottom: -918px ; margin-right: -918px ; background-color: rgb(242 , 242 , 242) ; left: 486.013px ; top: 543.525px ; font-size: 16.56px ; font-family: serif ; transform: scalex(1.13666)&quot;&gt;Letter Grade&lt;/span&gt;&lt;span class=&quot;textLayer--absolute&quot; style=&quot;box-sizing: border-box ; color: transparent ; position: relative ; cursor: text ; transform-origin: 0% 0% ; display: block ; float: left ; margin-bottom: -918px ; margin-right: -918px ; background-color: rgb(242 , 242 , 242) ; left: 162px ; top: 566.565px ; font-size: 16.56px ; font-family: serif ; transform: scalex(1.06296)&quot;&gt;90 &lt;/span&gt;&lt;span class=&quot;textLayer--absolute&quot; style=&quot;box-sizing: border-box ; color: transparent ; position: relative ; cursor: text ; transform-origin: 0% 0% ; display: block ; float: left ; margin-bottom: -918px ; margin-right: -918px ; background-color: rgb(242 , 242 , 242) ; left: 183.959px ; top: 566.565px ; font-size: 16.56px ; font-family: serif ; transform: scalex(1.04753)&quot;&gt;–   100&lt;/span&gt;&lt;span class=&quot;textLayer--absolute&quot; style=&quot;box-sizing: border-box ; color: transparent ; position: relative ; cursor: text ; transform-origin: 0% 0% ; display: block ; float: left ; margin-bottom: -918px ; margin-right: -918px ; background-color: rgb(242 , 242 , 242) ; left: 539.999px ; top: 566.565px ; font-size: 16.56px ; font-family: serif ; transform: scalex(0.864049)&quot;&gt;A &lt;/span&gt;&lt;span class=&quot;textLayer--absolute&quot; style=&quot;box-sizing: border-box ; color: transparent ; position: relative ; cursor: text ; transform-origin: 0% 0% ; display: block ; float: left ; margin-bottom: -918px ; margin-right: -918px ; background-color: rgb(242 , 242 , 242) ; left: 162px ; top: 586.006px ; font-size: 16.56px ; font-family: serif ; transform: scalex(1.06296)&quot;&gt;80 &lt;/span&gt;&lt;span class=&quot;textLayer--absolute&quot; style=&quot;box-sizing: border-box ; color: transparent ; position: relative ; cursor: text ; transform-origin: 0% 0% ; display: block ; float: left ; margin-bottom: -918px ; margin-right: -918px ; background-color: rgb(242 , 242 , 242) ; left: 183.959px ; top: 586.006px ; font-size: 16.56px ; font-family: serif ; transform: scalex(1.03391)&quot;&gt;–   89&lt;/span&gt;&lt;span class=&quot;textLayer--absolute&quot; style=&quot;box-sizing: border-box ; color: transparent ; position: relative ; cursor: text ; transform-origin: 0% 0% ; display: block ; float: left ; margin-bottom: -918px ; margin-right: -918px ; background-color: rgb(242 , 242 , 242) ; left: 540.015px ; top: 586.006px ; font-size: 16.56px ; font-family: serif ; transform: scalex(0.904043)&quot;&gt;B &lt;/span&gt;&lt;span class=&quot;textLayer--absolute&quot; style=&quot;box-sizing: border-box ; color: transparent ; position: relative ; cursor: text ; transform-origin: 0% 0% ; display: block ; float: left ; margin-bottom: -918px ; margin-right: -918px ; background-color: rgb(242 , 242 , 242) ; left: 162.017px ; top: 605.265px ; font-size: 16.56px ; font-family: serif ; transform: scalex(1.06296)&quot;&gt;70 &lt;/span&gt;&lt;span class=&quot;textLayer--absolute&quot; style=&quot;box-sizing: border-box ; color: transparent ; position: relative ; cursor: text ; transform-origin: 0% 0% ; display: block ; float: left ; margin-bottom: -918px ; margin-right: -918px ; background-color: rgb(242 , 242 , 242) ; left: 183.975px ; top: 605.265px ; font-size: 16.56px ; font-family: serif ; transform: scalex(1.03391)&quot;&gt;–   79&lt;/span&gt;&lt;span class=&quot;textLayer--absolute&quot; style=&quot;box-sizing: border-box ; color: transparent ; position: relative ; cursor: text ; transform-origin: 0% 0% ; display: block ; float: left ; margin-bottom: -918px ; margin-right: -918px ; background-color: rgb(242 , 242 , 242) ; left: 540.032px ; top: 605.265px ; font-size: 16.56px ; font-family: serif ; transform: scalex(0.85606)&quot;&gt;C &lt;/span&gt;&lt;span class=&quot;textLayer--absolute&quot; style=&quot;box-sizing: border-box ; color: transparent ; position: relative ; cursor: text ; transform-origin: 0% 0% ; display: block ; float: left ; margin-bottom: -918px ; margin-right: -918px ; background-color: rgb(242 , 242 , 242) ; left: 162.033px ; top: 624.707px ; font-size: 16.56px ; font-family: serif ; transform: scalex(1.06296)&quot;&gt;60 &lt;/span&gt;&lt;span class=&quot;textLayer--absolute&quot; style=&quot;box-sizing: border-box ; color: transparent ; position: relative ; cursor: text ; transform-origin: 0% 0% ; display: block ; float: left ; margin-bottom: -918px ; margin-right: -918px ; background-color: rgb(242 , 242 , 242) ; left: 183.992px ; top: 624.707px ; font-size: 16.56px ; font-family: serif ; transform: scalex(1.03391)&quot;&gt;–   69&lt;/span&gt;&lt;span class=&quot;textLayer--absolute&quot; style=&quot;box-sizing: border-box ; color: transparent ; position: relative ; cursor: text ; transform-origin: 0% 0% ; display: block ; float: left ; margin-bottom: -918px ; margin-right: -918px ; background-color: rgb(242 , 242 , 242) ; left: 540.048px ; top: 624.707px ; font-size: 16.56px ; font-family: serif ; transform: scalex(0.90828)&quot;&gt;D &lt;/span&gt;&lt;span class=&quot;textLayer--absolute&quot; style=&quot;box-sizing: border-box ; color: transparent ; position: relative ; cursor: text ; transform-origin: 0% 0% ; display: block ; float: left ; margin-bottom: -918px ; margin-right: -918px ; background-color: rgb(242 , 242 , 242) ; left: 162.05px ; top: 643.966px ; font-size: 16.56px ; font-family: serif ; transform: scalex(1.03509)&quot;&gt;Below 60&lt;/span&gt;&lt;span class=&quot;textLayer--absolute&quot; style=&quot;box-sizing: border-box ; color: transparent ; position: relative ; cursor: text ; transform-origin: 0% 0% ; display: block ; float: left ; margin-bottom: -918px ; margin-right: -918px ; background-color: rgb(242 , 242 , 242) ; left: 540.065px ; top: 643.966px ; font-size: 16.56px ; font-family: serif ; transform: scalex(0.934068)&quot;&gt;F &lt;/span&gt;&lt;span class=&quot;textLayer--absolute&quot; style=&quot;box-sizing: border-box ; color: transparent ; position: relative ; cursor: text ; transform-origin: 0% 0% ; display: block ; float: left ; margin-bottom: -918px ; margin-right: -918px ; background-color: rgb(242 , 242 , 242) ; left: 162.066px ; top: 682.667px ; font-size: 16.56px ; font-family: serif ; transform: scalex(1.04063)&quot;&gt;Your display should look like:&lt;/span&gt;&lt;span class=&quot;textLayer--absolute&quot; style=&quot;box-sizing: border-box ; color: transparent ; position: relative ; cursor: text ; transform-origin: 0% 0% ; display: block ; float: left ; margin-bottom: -918px ; margin-right: -918px ; background-color: rgb(242 , 242 , 242) ; left: 162.066px ; top: 701.888px ; font-size: 16.56px ; font-family: monospace ; transform: scalex(1.08773)&quot;&gt;Your average test score is 89.9. You earned a B. &lt;/span&gt;&lt;/p&gt;" style="text;html=1;strokeColor=none;fillColor=none;spacing=5;spacingTop=-20;whiteSpace=wrap;overflow=hidden;rounded=0;" vertex="1" parent="WIyWlLk6GJQsqaUBKTNV-1">
          <mxGeometry x="41" y="-160" width="670" height="120" as="geometry" />
        </mxCell>
      </root>
    </mxGraphModel>
  </diagram>
</mxfile>
